<?xml version="1.0" encoding="UTF-8"?>
<svg xmlns="http://www.w3.org/2000/svg" xmlns:xlink="http://www.w3.org/1999/xlink" width="48px" height="48px" viewBox="0 0 48 48" version="1.1">
<g id="surface1">
<path style=" stroke:none;fill-rule:nonzero;fill:rgb(100%,17.647059%,12.54902%);fill-opacity:1;" d="M 47.886719 10.953125 C 47.90625 11.015625 47.914062 11.082031 47.914062 11.148438 L 47.914062 21.386719 C 47.914062 21.65625 47.765625 21.902344 47.527344 22.035156 L 38.640625 26.984375 L 38.640625 36.792969 C 38.640625 37.058594 38.492188 37.304688 38.253906 37.4375 L 19.703125 47.765625 C 19.664062 47.789062 19.617188 47.804688 19.570312 47.820312 C 19.550781 47.828125 19.535156 47.835938 19.515625 47.84375 C 19.386719 47.875 19.25 47.875 19.121094 47.84375 C 19.101562 47.835938 19.082031 47.824219 19.0625 47.816406 C 19.019531 47.804688 18.972656 47.789062 18.933594 47.765625 L 0.386719 37.4375 C 0.148438 37.304688 0 37.058594 0 36.792969 L 0 6.070312 C 0 6.003906 0.0078125 5.9375 0.0273438 5.875 C 0.03125 5.851562 0.046875 5.832031 0.0546875 5.8125 C 0.0703125 5.773438 0.0820312 5.734375 0.101562 5.695312 C 0.117188 5.671875 0.140625 5.652344 0.15625 5.628906 C 0.179688 5.601562 0.199219 5.570312 0.226562 5.542969 C 0.246094 5.523438 0.277344 5.503906 0.300781 5.488281 C 0.328125 5.464844 0.355469 5.441406 0.386719 5.421875 L 9.660156 0.257812 C 9.898438 0.125 10.191406 0.125 10.433594 0.257812 L 19.707031 5.421875 C 19.738281 5.441406 19.765625 5.464844 19.792969 5.484375 C 19.816406 5.503906 19.84375 5.523438 19.867188 5.542969 C 19.894531 5.570312 19.914062 5.601562 19.9375 5.628906 C 19.953125 5.652344 19.976562 5.671875 19.988281 5.695312 C 20.011719 5.734375 20.023438 5.773438 20.039062 5.8125 C 20.046875 5.832031 20.0625 5.851562 20.066406 5.875 C 20.085938 5.9375 20.09375 6.003906 20.09375 6.070312 L 20.09375 25.257812 L 27.820312 20.953125 L 27.820312 11.144531 C 27.820312 11.082031 27.832031 11.015625 27.847656 10.953125 C 27.855469 10.929688 27.867188 10.910156 27.875 10.886719 C 27.890625 10.847656 27.902344 10.808594 27.925781 10.773438 C 27.941406 10.75 27.960938 10.726562 27.976562 10.707031 C 28 10.675781 28.019531 10.644531 28.046875 10.621094 C 28.070312 10.597656 28.097656 10.582031 28.121094 10.5625 C 28.152344 10.539062 28.175781 10.515625 28.207031 10.5 L 37.480469 5.335938 C 37.722656 5.203125 38.015625 5.203125 38.253906 5.335938 L 47.527344 10.5 C 47.558594 10.515625 47.585938 10.539062 47.613281 10.5625 C 47.636719 10.582031 47.667969 10.597656 47.6875 10.617188 C 47.714844 10.644531 47.734375 10.675781 47.757812 10.707031 C 47.777344 10.726562 47.796875 10.75 47.808594 10.773438 C 47.832031 10.808594 47.84375 10.847656 47.859375 10.886719 C 47.871094 10.910156 47.882812 10.929688 47.886719 10.953125 Z M 46.367188 20.953125 L 46.367188 12.4375 L 43.125 14.246094 L 38.640625 16.742188 L 38.640625 25.257812 L 46.371094 20.953125 Z M 37.09375 36.359375 L 37.09375 27.839844 L 32.683594 30.273438 L 20.09375 37.226562 L 20.09375 45.828125 Z M 1.546875 7.363281 L 1.546875 36.359375 L 18.546875 45.824219 L 18.546875 37.226562 L 9.664062 32.363281 L 9.660156 32.359375 C 9.628906 32.34375 9.601562 32.320312 9.574219 32.300781 C 9.550781 32.28125 9.523438 32.265625 9.503906 32.246094 L 9.5 32.242188 C 9.476562 32.21875 9.457031 32.191406 9.4375 32.164062 C 9.417969 32.140625 9.394531 32.117188 9.378906 32.089844 C 9.359375 32.058594 9.347656 32.027344 9.335938 31.996094 C 9.324219 31.96875 9.308594 31.941406 9.300781 31.910156 C 9.289062 31.875 9.289062 31.835938 9.285156 31.800781 C 9.28125 31.773438 9.273438 31.746094 9.273438 31.71875 L 9.273438 11.667969 L 4.792969 9.167969 Z M 10.046875 1.769531 L 2.320312 6.070312 L 10.046875 10.371094 L 17.769531 6.070312 Z M 14.066406 28.613281 L 18.546875 26.117188 L 18.546875 7.363281 L 15.300781 9.167969 L 10.820312 11.667969 L 10.820312 30.421875 Z M 37.867188 6.84375 L 30.144531 11.148438 L 37.867188 15.449219 L 45.59375 11.144531 Z M 37.09375 16.742188 L 32.613281 14.246094 L 29.367188 12.4375 L 29.367188 20.953125 L 33.847656 23.449219 L 37.09375 25.257812 Z M 19.320312 35.933594 L 30.648438 29.675781 L 36.316406 26.550781 L 28.59375 22.25 L 19.707031 27.199219 L 11.605469 31.710938 Z M 19.320312 35.933594 "/>
</g>
</svg>
